<svg xmlns="http://www.w3.org/2000/svg" width="400" height="250" style="enable-background:new 0 0 400 250" xml:space="preserve"><path d="M117.156 200.781c20.812 2.812 51.503-18.787 66.328-26.156C248.106 142.503 313 136.494 389.5 204.25" style="fill:none;stroke:#ed6b1d;stroke-width:8;stroke-linecap:round;stroke-miterlimit:10"/><path d="M110 10C54.771 10 10 54.772 10 110s44.771 100 100 100c55.228 0 100-44.772 100-100S165.228 10 110 10zm39.967 49.977c10.711-6.155 24.384-2.463 30.539 8.248 6.155 10.711 2.463 24.384-8.248 30.539s-24.384 2.463-30.539-8.248c-6.156-10.711-2.463-24.383 8.248-30.539zm-79.934 97.535c-10.711 6.155-24.384 2.463-30.539-8.248-6.155-10.711-2.463-24.383 8.248-30.539s24.384-2.463 30.539 8.248c6.156 10.711 2.463 24.384-8.248 30.539zm8.949-68.164c-6.55 10.474-20.351 13.655-30.825 7.105s-13.655-20.351-7.105-30.825c6.55-10.474 20.351-13.655 30.825-7.105 10.474 6.55 13.655 20.35 7.105 30.825zM110 191.319c-12.354 0-22.368-10.015-22.368-22.368 0-12.354 10.015-22.368 22.368-22.368 12.354 0 22.368 10.015 22.368 22.368 0 12.354-10.014 22.368-22.368 22.368zm-10.844-82.788c0-5.592 4.533-10.125 10.125-10.125s10.125 4.533 10.125 10.125-4.533 10.125-10.125 10.125-10.125-4.533-10.125-10.125zM110 73.417c-12.354 0-22.368-10.015-22.368-22.368 0-12.354 10.015-22.368 22.368-22.368 12.354 0 22.368 10.015 22.368 22.368S122.354 73.417 110 73.417zm68.948 78.444c-6.55 10.474-20.351 13.655-30.825 7.105-10.474-6.55-13.655-20.351-7.105-30.825s20.351-13.655 30.825-7.105c10.474 6.55 13.655 20.351 7.105 30.825z" style="fill:#ed6b1d;stroke:#010202;stroke-miterlimit:10"><animateTransform attributeName="transform" attributeType="XML" type="rotate" from="0 110 110" to="-360 110 110" begin="0" dur="5s" repeatCount="indefinite"/></path></svg>