<svg xmlns="http://www.w3.org/2000/svg" fill="#ff6b01" width="20" height="20" viewBox="0 0 26 26" style="enable-background:new 0 0 20 20" xml:space="preserve"><path d="M18.016 9.97a.383.383 0 0 0-.383.383v2.3a.382.382 0 1 0 .766 0v-2.3a.383.383 0 0 0-.383-.383zM4.487 7.941a.383.383 0 1 0-.542-.542L.112 11.232c-.012.012-.017.028-.027.041-.021.026-.043.052-.055.083a.375.375 0 0 0-.03.147c0 .007.004.013.004.02a.357.357 0 0 0 .111.253l3.831 3.832a.382.382 0 0 0 .542 0 .383.383 0 0 0 0-.542L1.31 11.887h12.872a.383.383 0 0 0 0-.766H1.307l3.18-3.18z"/><path d="M21.608 1.56 17.967.103A1.522 1.522 0 0 0 17.429 0c-.771 0-1.33.644-1.33 1.532v19.939c0 1.091.869 1.805 1.875 1.426l3.625-1.45c1.02-.378 1.4-.891 1.4-1.892V3.45c0-1.003-.38-1.515-1.391-1.89zm.624 17.995c0 .676-.177.906-.909 1.177l-3.627 1.451a.763.763 0 0 1-.267.053c-.337 0-.564-.307-.564-.764V1.532c0-.457.227-.765.564-.765.084 0 .174.018.26.05l3.643 1.458c.723.268.9.499.9 1.174v16.106zM8.049 9.587a.383.383 0 0 0 .383-.383V3.453c0-.634.516-1.15 1.15-1.15h5.367a.383.383 0 0 0 0-.766H9.582a1.92 1.92 0 0 0-1.917 1.917v5.751c.001.21.172.382.384.382zM14.997 20.705H9.582c-.634 0-1.15-.516-1.15-1.15v-5.751a.382.382 0 1 0-.766 0v5.751a1.92 1.92 0 0 0 1.917 1.917h5.414a.383.383 0 0 0 0-.767z"/></svg>