<?xml version="1.0" encoding="utf-8"?>
<!-- Generator: Adobe Illustrator 26.0.1, SVG Export Plug-In . SVG Version: 6.00 Build 0)  -->
<svg version="1.1" id="Слой_1" xmlns="http://www.w3.org/2000/svg" xmlns:xlink="http://www.w3.org/1999/xlink" x="0px" y="0px"
	 viewBox="0 0 181 1080" style="enable-background:new 0 0 181 1080;" xml:space="preserve">
<style type="text/css">
	.st0{fill-rule:evenodd;clip-rule:evenodd;}
	.st1{fill:#ED9C00;}
	.st2{font-family:'CourierNewPSMT';}
	.st3{font-size:13.137px;}
</style>
<g id="layer1_00000168083526660897101050000001698873055434532245_" transform="translate(0 -928.375)">
	<path id="rect10_00000088113538634841600820000015291833876798172863_" class="st0" d="M0,1063.4h181v-135H0V1063.4z M9.3,1055.5
		v-2.8c0-1,1.2-1.7,2.6-1.7h9.3c1.4,0,2.6,0.8,2.6,1.7v2.8c0,1-1.2,1.7-2.6,1.7h-9.3C10.4,1057.3,9.3,1056.5,9.3,1055.5z M9.3,1039
		v-2.8c0-1,1.2-1.7,2.6-1.7h9.3c1.4,0,2.6,0.8,2.6,1.7v2.8c0,1-1.2,1.7-2.6,1.7h-9.3C10.4,1040.8,9.3,1040,9.3,1039z M9.3,1022.5
		v-2.8c0-1,1.2-1.7,2.6-1.7h9.3c1.4,0,2.6,0.8,2.6,1.7v2.8c0,1-1.2,1.7-2.6,1.7h-9.3C10.4,1024.3,9.3,1023.5,9.3,1022.5z M9.3,1006
		v-2.8c0-1,1.2-1.7,2.6-1.7h9.3c1.4,0,2.6,0.8,2.6,1.7v2.8c0,1-1.2,1.7-2.6,1.7h-9.3C10.4,1007.7,9.3,1007,9.3,1006z M9.3,989.5
		v-2.8c0-1,1.2-1.7,2.6-1.7h9.3c1.4,0,2.6,0.8,2.6,1.7v2.8c0,1-1.2,1.7-2.6,1.7h-9.3C10.4,991.3,9.3,990.5,9.3,989.5z M9.3,973v-2.8
		c0-1,1.2-1.7,2.6-1.7h9.3c1.4,0,2.6,0.8,2.6,1.7v2.8c0,1-1.2,1.7-2.6,1.7h-9.3C10.4,974.7,9.3,974,9.3,973z M9.3,956.5v-2.8
		c0-1,1.2-1.7,2.6-1.7h9.3c1.4,0,2.6,0.8,2.6,1.7v2.8c0,1-1.2,1.7-2.6,1.7h-9.3C10.4,958.2,9.3,957.4,9.3,956.5z M9.3,940v-2.8
		c0-1,1.2-1.7,2.6-1.7h9.3c1.4,0,2.6,0.8,2.6,1.7v2.8c0,1-1.2,1.7-2.6,1.7h-9.3C10.4,941.7,9.3,941,9.3,940z M28.1,1059.4v-125h125
		v125H28.1z M158.2,1056.1v-2.8c0-1,1.1-1.7,2.6-1.7h9.3c1.4,0,2.6,0.8,2.6,1.7v2.8c0,1-1.2,1.7-2.6,1.7h-9.3
		C159.4,1057.8,158.2,1057.1,158.2,1056.1z M158.2,1039.6v-2.8c0-1,1.1-1.7,2.6-1.7h9.3c1.4,0,2.6,0.8,2.6,1.7v2.8
		c0,1-1.2,1.7-2.6,1.7h-9.3C159.4,1041.3,158.2,1040.5,158.2,1039.6z M158.2,1023.1v-2.8c0-1,1.1-1.7,2.6-1.7h9.3
		c1.4,0,2.6,0.8,2.6,1.7v2.8c0,1-1.2,1.7-2.6,1.7h-9.3C159.4,1024.8,158.2,1024,158.2,1023.1z M158.2,1006.5v-2.8
		c0-1,1.1-1.7,2.6-1.7h9.3c1.4,0,2.6,0.8,2.6,1.7v2.8c0,1-1.2,1.7-2.6,1.7h-9.3C159.4,1008.3,158.2,1007.5,158.2,1006.5z M158.2,990
		v-2.8c0-1,1.1-1.7,2.6-1.7h9.3c1.4,0,2.6,0.8,2.6,1.7v2.8c0,1-1.2,1.7-2.6,1.7h-9.3C159.4,991.8,158.2,991,158.2,990z M158.2,973.5
		v-2.8c0-1,1.1-1.7,2.6-1.7h9.3c1.4,0,2.6,0.8,2.6,1.7v2.8c0,1-1.2,1.7-2.6,1.7h-9.3C159.4,975.3,158.2,974.5,158.2,973.5z
		 M158.2,957v-2.8c0-1,1.1-1.7,2.6-1.7h9.3c1.4,0,2.6,0.8,2.6,1.7v2.8c0,1-1.2,1.7-2.6,1.7h-9.3C159.4,958.7,158.2,958,158.2,957z
		 M158.2,940.5v-2.8c0-1,1.1-1.7,2.6-1.7h9.3c1.4,0,2.6,0.8,2.6,1.7v2.8c0,1-1.2,1.7-2.6,1.7h-9.3
		C159.4,942.3,158.2,941.5,158.2,940.5z"/>
	<text transform="matrix(0 -0.6717 1 0 11.7725 998.6997)" class="st1 st2 st3">1</text>
	<text transform="matrix(0 -0.6717 1 0 171.3711 997.6929)" class="st1 st2 st3">1</text>
</g>
<g id="layer1_00000019646622072118848190000016476002810818184842_" transform="translate(0 -928.375)">
	<path id="rect10_00000083082747663563741190000014111082310830497209_" class="st0" d="M0,1198.4h181v-135H0V1198.4z M9.3,1190.5
		v-2.8c0-1,1.2-1.7,2.6-1.7h9.3c1.4,0,2.6,0.8,2.6,1.7v2.8c0,1-1.2,1.7-2.6,1.7h-9.3C10.4,1192.3,9.3,1191.5,9.3,1190.5z M9.3,1174
		v-2.8c0-1,1.2-1.7,2.6-1.7h9.3c1.4,0,2.6,0.8,2.6,1.7v2.8c0,1-1.2,1.7-2.6,1.7h-9.3C10.4,1175.8,9.3,1175,9.3,1174z M9.3,1157.5
		v-2.8c0-1,1.2-1.7,2.6-1.7h9.3c1.4,0,2.6,0.8,2.6,1.7v2.8c0,1-1.2,1.7-2.6,1.7h-9.3C10.4,1159.3,9.3,1158.5,9.3,1157.5z M9.3,1141
		v-2.8c0-1,1.2-1.7,2.6-1.7h9.3c1.4,0,2.6,0.8,2.6,1.7v2.8c0,1-1.2,1.7-2.6,1.7h-9.3C10.4,1142.7,9.3,1142,9.3,1141z M9.3,1124.5
		v-2.8c0-1,1.2-1.7,2.6-1.7h9.3c1.4,0,2.6,0.8,2.6,1.7v2.8c0,1-1.2,1.7-2.6,1.7h-9.3C10.4,1126.3,9.3,1125.5,9.3,1124.5z M9.3,1108
		v-2.8c0-1,1.2-1.7,2.6-1.7h9.3c1.4,0,2.6,0.8,2.6,1.7v2.8c0,1-1.2,1.7-2.6,1.7h-9.3C10.4,1109.7,9.3,1109,9.3,1108z M9.3,1091.5
		v-2.8c0-1,1.2-1.7,2.6-1.7h9.3c1.4,0,2.6,0.8,2.6,1.7v2.8c0,1-1.2,1.7-2.6,1.7h-9.3C10.4,1093.2,9.3,1092.4,9.3,1091.5z M9.3,1075
		v-2.8c0-1,1.2-1.7,2.6-1.7h9.3c1.4,0,2.6,0.8,2.6,1.7v2.8c0,1-1.2,1.7-2.6,1.7h-9.3C10.4,1076.7,9.3,1076,9.3,1075z M28.1,1194.4
		v-125h125v125H28.1z M158.2,1191.1v-2.8c0-1,1.1-1.7,2.6-1.7h9.3c1.4,0,2.6,0.8,2.6,1.7v2.8c0,1-1.2,1.7-2.6,1.7h-9.3
		C159.4,1192.8,158.2,1192.1,158.2,1191.1z M158.2,1174.6v-2.8c0-1,1.1-1.7,2.6-1.7h9.3c1.4,0,2.6,0.8,2.6,1.7v2.8
		c0,1-1.2,1.7-2.6,1.7h-9.3C159.4,1176.3,158.2,1175.5,158.2,1174.6z M158.2,1158.1v-2.8c0-1,1.1-1.7,2.6-1.7h9.3
		c1.4,0,2.6,0.8,2.6,1.7v2.8c0,1-1.2,1.7-2.6,1.7h-9.3C159.4,1159.8,158.2,1159,158.2,1158.1z M158.2,1141.5v-2.8
		c0-1,1.1-1.7,2.6-1.7h9.3c1.4,0,2.6,0.8,2.6,1.7v2.8c0,1-1.2,1.7-2.6,1.7h-9.3C159.4,1143.3,158.2,1142.5,158.2,1141.5z
		 M158.2,1125v-2.8c0-1,1.1-1.7,2.6-1.7h9.3c1.4,0,2.6,0.8,2.6,1.7v2.8c0,1-1.2,1.7-2.6,1.7h-9.3
		C159.4,1126.8,158.2,1126,158.2,1125z M158.2,1108.5v-2.8c0-1,1.1-1.7,2.6-1.7h9.3c1.4,0,2.6,0.8,2.6,1.7v2.8c0,1-1.2,1.7-2.6,1.7
		h-9.3C159.4,1110.3,158.2,1109.5,158.2,1108.5z M158.2,1092v-2.8c0-1,1.1-1.7,2.6-1.7h9.3c1.4,0,2.6,0.8,2.6,1.7v2.8
		c0,1-1.2,1.7-2.6,1.7h-9.3C159.4,1093.7,158.2,1093,158.2,1092z M158.2,1075.5v-2.8c0-1,1.1-1.7,2.6-1.7h9.3c1.4,0,2.6,0.8,2.6,1.7
		v2.8c0,1-1.2,1.7-2.6,1.7h-9.3C159.4,1077.3,158.2,1076.5,158.2,1075.5z"/>
	<text transform="matrix(0 -0.6717 1 0 11.7725 1133.6997)" class="st1 st2 st3">2</text>
	<text transform="matrix(0 -0.6717 1 0 171.3711 1132.6929)" class="st1 st2 st3">2</text>
</g>
<g id="layer1_00000128458305697567122870000000165790921231951242_" transform="translate(0 -928.375)">
	<path id="rect10_00000132771537006392299880000004789003121501655684_" class="st0" d="M0,1333.4h181v-135H0V1333.4z M9.3,1325.5
		v-2.8c0-1,1.2-1.7,2.6-1.7h9.3c1.4,0,2.6,0.8,2.6,1.7v2.8c0,1-1.2,1.7-2.6,1.7h-9.3C10.4,1327.3,9.3,1326.5,9.3,1325.5z M9.3,1309
		v-2.8c0-1,1.2-1.7,2.6-1.7h9.3c1.4,0,2.6,0.8,2.6,1.7v2.8c0,1-1.2,1.7-2.6,1.7h-9.3C10.4,1310.8,9.3,1310,9.3,1309z M9.3,1292.5
		v-2.8c0-1,1.2-1.7,2.6-1.7h9.3c1.4,0,2.6,0.8,2.6,1.7v2.8c0,1-1.2,1.7-2.6,1.7h-9.3C10.4,1294.3,9.3,1293.5,9.3,1292.5z M9.3,1276
		v-2.8c0-1,1.2-1.7,2.6-1.7h9.3c1.4,0,2.6,0.8,2.6,1.7v2.8c0,1-1.2,1.7-2.6,1.7h-9.3C10.4,1277.7,9.3,1277,9.3,1276z M9.3,1259.5
		v-2.8c0-1,1.2-1.7,2.6-1.7h9.3c1.4,0,2.6,0.8,2.6,1.7v2.8c0,1-1.2,1.7-2.6,1.7h-9.3C10.4,1261.3,9.3,1260.5,9.3,1259.5z M9.3,1243
		v-2.8c0-1,1.2-1.7,2.6-1.7h9.3c1.4,0,2.6,0.8,2.6,1.7v2.8c0,1-1.2,1.7-2.6,1.7h-9.3C10.4,1244.7,9.3,1244,9.3,1243z M9.3,1226.5
		v-2.8c0-1,1.2-1.7,2.6-1.7h9.3c1.4,0,2.6,0.8,2.6,1.7v2.8c0,1-1.2,1.7-2.6,1.7h-9.3C10.4,1228.2,9.3,1227.4,9.3,1226.5z M9.3,1210
		v-2.8c0-1,1.2-1.7,2.6-1.7h9.3c1.4,0,2.6,0.8,2.6,1.7v2.8c0,1-1.2,1.7-2.6,1.7h-9.3C10.4,1211.7,9.3,1211,9.3,1210z M28.1,1329.4
		v-125h125v125H28.1z M158.2,1326.1v-2.8c0-1,1.1-1.7,2.6-1.7h9.3c1.4,0,2.6,0.8,2.6,1.7v2.8c0,1-1.2,1.7-2.6,1.7h-9.3
		C159.4,1327.8,158.2,1327.1,158.2,1326.1z M158.2,1309.6v-2.8c0-1,1.1-1.7,2.6-1.7h9.3c1.4,0,2.6,0.8,2.6,1.7v2.8
		c0,1-1.2,1.7-2.6,1.7h-9.3C159.4,1311.3,158.2,1310.5,158.2,1309.6z M158.2,1293.1v-2.8c0-1,1.1-1.7,2.6-1.7h9.3
		c1.4,0,2.6,0.8,2.6,1.7v2.8c0,1-1.2,1.7-2.6,1.7h-9.3C159.4,1294.8,158.2,1294,158.2,1293.1z M158.2,1276.5v-2.8
		c0-1,1.1-1.7,2.6-1.7h9.3c1.4,0,2.6,0.8,2.6,1.7v2.8c0,1-1.2,1.7-2.6,1.7h-9.3C159.4,1278.3,158.2,1277.5,158.2,1276.5z
		 M158.2,1260v-2.8c0-1,1.1-1.7,2.6-1.7h9.3c1.4,0,2.6,0.8,2.6,1.7v2.8c0,1-1.2,1.7-2.6,1.7h-9.3
		C159.4,1261.8,158.2,1261,158.2,1260z M158.2,1243.5v-2.8c0-1,1.1-1.7,2.6-1.7h9.3c1.4,0,2.6,0.8,2.6,1.7v2.8c0,1-1.2,1.7-2.6,1.7
		h-9.3C159.4,1245.3,158.2,1244.5,158.2,1243.5z M158.2,1227v-2.8c0-1,1.1-1.7,2.6-1.7h9.3c1.4,0,2.6,0.8,2.6,1.7v2.8
		c0,1-1.2,1.7-2.6,1.7h-9.3C159.4,1228.7,158.2,1228,158.2,1227z M158.2,1210.5v-2.8c0-1,1.1-1.7,2.6-1.7h9.3c1.4,0,2.6,0.8,2.6,1.7
		v2.8c0,1-1.2,1.7-2.6,1.7h-9.3C159.4,1212.3,158.2,1211.5,158.2,1210.5z"/>
	<text transform="matrix(0 -0.6717 1 0 11.7725 1268.6997)" class="st1 st2 st3">3</text>
	<text transform="matrix(0 -0.6717 1 0 171.3711 1267.6929)" class="st1 st2 st3">3</text>
</g>
<g id="layer1_00000011724471942603867980000012896126218193937834_" transform="translate(0 -928.375)">
	<path id="rect10_00000167376205700620357790000004959829297479562635_" class="st0" d="M0,1468.4h181v-135H0V1468.4z M9.3,1460.5
		v-2.8c0-1,1.2-1.7,2.6-1.7h9.3c1.4,0,2.6,0.8,2.6,1.7v2.8c0,1-1.2,1.7-2.6,1.7h-9.3C10.4,1462.3,9.3,1461.5,9.3,1460.5z M9.3,1444
		v-2.8c0-1,1.2-1.7,2.6-1.7h9.3c1.4,0,2.6,0.8,2.6,1.7v2.8c0,1-1.2,1.7-2.6,1.7h-9.3C10.4,1445.8,9.3,1445,9.3,1444z M9.3,1427.5
		v-2.8c0-1,1.2-1.7,2.6-1.7h9.3c1.4,0,2.6,0.8,2.6,1.7v2.8c0,1-1.2,1.7-2.6,1.7h-9.3C10.4,1429.3,9.3,1428.5,9.3,1427.5z M9.3,1411
		v-2.8c0-1,1.2-1.7,2.6-1.7h9.3c1.4,0,2.6,0.8,2.6,1.7v2.8c0,1-1.2,1.7-2.6,1.7h-9.3C10.4,1412.7,9.3,1412,9.3,1411z M9.3,1394.5
		v-2.8c0-1,1.2-1.7,2.6-1.7h9.3c1.4,0,2.6,0.8,2.6,1.7v2.8c0,1-1.2,1.7-2.6,1.7h-9.3C10.4,1396.3,9.3,1395.5,9.3,1394.5z M9.3,1378
		v-2.8c0-1,1.2-1.7,2.6-1.7h9.3c1.4,0,2.6,0.8,2.6,1.7v2.8c0,1-1.2,1.7-2.6,1.7h-9.3C10.4,1379.7,9.3,1379,9.3,1378z M9.3,1361.5
		v-2.8c0-1,1.2-1.7,2.6-1.7h9.3c1.4,0,2.6,0.8,2.6,1.7v2.8c0,1-1.2,1.7-2.6,1.7h-9.3C10.4,1363.2,9.3,1362.4,9.3,1361.5z M9.3,1345
		v-2.8c0-1,1.2-1.7,2.6-1.7h9.3c1.4,0,2.6,0.8,2.6,1.7v2.8c0,1-1.2,1.7-2.6,1.7h-9.3C10.4,1346.7,9.3,1346,9.3,1345z M28.1,1464.4
		v-125h125v125H28.1z M158.2,1461.1v-2.8c0-1,1.1-1.7,2.6-1.7h9.3c1.4,0,2.6,0.8,2.6,1.7v2.8c0,1-1.2,1.7-2.6,1.7h-9.3
		C159.4,1462.8,158.2,1462.1,158.2,1461.1z M158.2,1444.6v-2.8c0-1,1.1-1.7,2.6-1.7h9.3c1.4,0,2.6,0.8,2.6,1.7v2.8
		c0,1-1.2,1.7-2.6,1.7h-9.3C159.4,1446.3,158.2,1445.5,158.2,1444.6z M158.2,1428.1v-2.8c0-1,1.1-1.7,2.6-1.7h9.3
		c1.4,0,2.6,0.8,2.6,1.7v2.8c0,1-1.2,1.7-2.6,1.7h-9.3C159.4,1429.8,158.2,1429,158.2,1428.1z M158.2,1411.5v-2.8
		c0-1,1.1-1.7,2.6-1.7h9.3c1.4,0,2.6,0.8,2.6,1.7v2.8c0,1-1.2,1.7-2.6,1.7h-9.3C159.4,1413.3,158.2,1412.5,158.2,1411.5z
		 M158.2,1395v-2.8c0-1,1.1-1.7,2.6-1.7h9.3c1.4,0,2.6,0.8,2.6,1.7v2.8c0,1-1.2,1.7-2.6,1.7h-9.3
		C159.4,1396.8,158.2,1396,158.2,1395z M158.2,1378.5v-2.8c0-1,1.1-1.7,2.6-1.7h9.3c1.4,0,2.6,0.8,2.6,1.7v2.8c0,1-1.2,1.7-2.6,1.7
		h-9.3C159.4,1380.3,158.2,1379.5,158.2,1378.5z M158.2,1362v-2.8c0-1,1.1-1.7,2.6-1.7h9.3c1.4,0,2.6,0.8,2.6,1.7v2.8
		c0,1-1.2,1.7-2.6,1.7h-9.3C159.4,1363.7,158.2,1363,158.2,1362z M158.2,1345.5v-2.8c0-1,1.1-1.7,2.6-1.7h9.3c1.4,0,2.6,0.8,2.6,1.7
		v2.8c0,1-1.2,1.7-2.6,1.7h-9.3C159.4,1347.3,158.2,1346.5,158.2,1345.5z"/>
	<text transform="matrix(0 -0.6717 1 0 11.7725 1403.6997)" class="st1 st2 st3">4</text>
	<text transform="matrix(0 -0.6717 1 0 171.3711 1402.6929)" class="st1 st2 st3">4</text>
</g>
<g id="layer1_00000096049282424965757570000013268244874985707917_" transform="translate(0 -928.375)">
	<path id="rect10_00000145053716303884752540000009090502281616047537_" class="st0" d="M0,1603.4h181v-135H0V1603.4z M9.3,1595.5
		v-2.8c0-1,1.2-1.7,2.6-1.7h9.3c1.4,0,2.6,0.8,2.6,1.7v2.8c0,1-1.2,1.7-2.6,1.7h-9.3C10.4,1597.3,9.3,1596.5,9.3,1595.5z M9.3,1579
		v-2.8c0-1,1.2-1.7,2.6-1.7h9.3c1.4,0,2.6,0.8,2.6,1.7v2.8c0,1-1.2,1.7-2.6,1.7h-9.3C10.4,1580.8,9.3,1580,9.3,1579z M9.3,1562.5
		v-2.8c0-1,1.2-1.7,2.6-1.7h9.3c1.4,0,2.6,0.8,2.6,1.7v2.8c0,1-1.2,1.7-2.6,1.7h-9.3C10.4,1564.3,9.3,1563.5,9.3,1562.5z M9.3,1546
		v-2.8c0-1,1.2-1.7,2.6-1.7h9.3c1.4,0,2.6,0.8,2.6,1.7v2.8c0,1-1.2,1.7-2.6,1.7h-9.3C10.4,1547.7,9.3,1547,9.3,1546z M9.3,1529.5
		v-2.8c0-1,1.2-1.7,2.6-1.7h9.3c1.4,0,2.6,0.8,2.6,1.7v2.8c0,1-1.2,1.7-2.6,1.7h-9.3C10.4,1531.3,9.3,1530.5,9.3,1529.5z M9.3,1513
		v-2.8c0-1,1.2-1.7,2.6-1.7h9.3c1.4,0,2.6,0.8,2.6,1.7v2.8c0,1-1.2,1.7-2.6,1.7h-9.3C10.4,1514.7,9.3,1514,9.3,1513z M9.3,1496.5
		v-2.8c0-1,1.2-1.7,2.6-1.7h9.3c1.4,0,2.6,0.8,2.6,1.7v2.8c0,1-1.2,1.7-2.6,1.7h-9.3C10.4,1498.2,9.3,1497.4,9.3,1496.5z M9.3,1480
		v-2.8c0-1,1.2-1.7,2.6-1.7h9.3c1.4,0,2.6,0.8,2.6,1.7v2.8c0,1-1.2,1.7-2.6,1.7h-9.3C10.4,1481.7,9.3,1481,9.3,1480z M28.1,1599.4
		v-125h125v125H28.1z M158.2,1596.1v-2.8c0-1,1.1-1.7,2.6-1.7h9.3c1.4,0,2.6,0.8,2.6,1.7v2.8c0,1-1.2,1.7-2.6,1.7h-9.3
		C159.4,1597.8,158.2,1597.1,158.2,1596.1z M158.2,1579.6v-2.8c0-1,1.1-1.7,2.6-1.7h9.3c1.4,0,2.6,0.8,2.6,1.7v2.8
		c0,1-1.2,1.7-2.6,1.7h-9.3C159.4,1581.3,158.2,1580.5,158.2,1579.6z M158.2,1563.1v-2.8c0-1,1.1-1.7,2.6-1.7h9.3
		c1.4,0,2.6,0.8,2.6,1.7v2.8c0,1-1.2,1.7-2.6,1.7h-9.3C159.4,1564.8,158.2,1564,158.2,1563.1z M158.2,1546.5v-2.8
		c0-1,1.1-1.7,2.6-1.7h9.3c1.4,0,2.6,0.8,2.6,1.7v2.8c0,1-1.2,1.7-2.6,1.7h-9.3C159.4,1548.3,158.2,1547.5,158.2,1546.5z
		 M158.2,1530v-2.8c0-1,1.1-1.7,2.6-1.7h9.3c1.4,0,2.6,0.8,2.6,1.7v2.8c0,1-1.2,1.7-2.6,1.7h-9.3
		C159.4,1531.8,158.2,1531,158.2,1530z M158.2,1513.5v-2.8c0-1,1.1-1.7,2.6-1.7h9.3c1.4,0,2.6,0.8,2.6,1.7v2.8c0,1-1.2,1.7-2.6,1.7
		h-9.3C159.4,1515.3,158.2,1514.5,158.2,1513.5z M158.2,1497v-2.8c0-1,1.1-1.7,2.6-1.7h9.3c1.4,0,2.6,0.8,2.6,1.7v2.8
		c0,1-1.2,1.7-2.6,1.7h-9.3C159.4,1498.7,158.2,1498,158.2,1497z M158.2,1480.5v-2.8c0-1,1.1-1.7,2.6-1.7h9.3c1.4,0,2.6,0.8,2.6,1.7
		v2.8c0,1-1.2,1.7-2.6,1.7h-9.3C159.4,1482.3,158.2,1481.5,158.2,1480.5z"/>
	<text transform="matrix(0 -0.8922 1 0 11.7725 1540.4375)" class="st1 st2 st3">5</text>
	<text transform="matrix(0 -0.8295 1 0 171.3711 1538.9385)" class="st1 st2 st3">5</text>
</g>
<g id="layer1_00000078748421333908917840000011564103875274174876_" transform="translate(0 -928.375)">
	<path id="rect10_00000101072947732732611840000005221956369243767196_" class="st0" d="M0,1738.4h181v-135H0V1738.4z M9.3,1730.5
		v-2.8c0-1,1.2-1.7,2.6-1.7h9.3c1.4,0,2.6,0.8,2.6,1.7v2.8c0,1-1.2,1.7-2.6,1.7h-9.3C10.4,1732.3,9.3,1731.5,9.3,1730.5z M9.3,1714
		v-2.8c0-1,1.2-1.7,2.6-1.7h9.3c1.4,0,2.6,0.8,2.6,1.7v2.8c0,1-1.2,1.7-2.6,1.7h-9.3C10.4,1715.8,9.3,1715,9.3,1714z M9.3,1697.5
		v-2.8c0-1,1.2-1.7,2.6-1.7h9.3c1.4,0,2.6,0.8,2.6,1.7v2.8c0,1-1.2,1.7-2.6,1.7h-9.3C10.4,1699.3,9.3,1698.5,9.3,1697.5z M9.3,1681
		v-2.8c0-1,1.2-1.7,2.6-1.7h9.3c1.4,0,2.6,0.8,2.6,1.7v2.8c0,1-1.2,1.7-2.6,1.7h-9.3C10.4,1682.7,9.3,1682,9.3,1681z M9.3,1664.5
		v-2.8c0-1,1.2-1.7,2.6-1.7h9.3c1.4,0,2.6,0.8,2.6,1.7v2.8c0,1-1.2,1.7-2.6,1.7h-9.3C10.4,1666.3,9.3,1665.5,9.3,1664.5z M9.3,1648
		v-2.8c0-1,1.2-1.7,2.6-1.7h9.3c1.4,0,2.6,0.8,2.6,1.7v2.8c0,1-1.2,1.7-2.6,1.7h-9.3C10.4,1649.7,9.3,1649,9.3,1648z M9.3,1631.5
		v-2.8c0-1,1.2-1.7,2.6-1.7h9.3c1.4,0,2.6,0.8,2.6,1.7v2.8c0,1-1.2,1.7-2.6,1.7h-9.3C10.4,1633.2,9.3,1632.4,9.3,1631.5z M9.3,1615
		v-2.8c0-1,1.2-1.7,2.6-1.7h9.3c1.4,0,2.6,0.8,2.6,1.7v2.8c0,1-1.2,1.7-2.6,1.7h-9.3C10.4,1616.7,9.3,1616,9.3,1615z M28.1,1734.4
		v-125h125v125H28.1z M158.2,1731.1v-2.8c0-1,1.1-1.7,2.6-1.7h9.3c1.4,0,2.6,0.8,2.6,1.7v2.8c0,1-1.2,1.7-2.6,1.7h-9.3
		C159.4,1732.8,158.2,1732.1,158.2,1731.1z M158.2,1714.6v-2.8c0-1,1.1-1.7,2.6-1.7h9.3c1.4,0,2.6,0.8,2.6,1.7v2.8
		c0,1-1.2,1.7-2.6,1.7h-9.3C159.4,1716.3,158.2,1715.5,158.2,1714.6z M158.2,1698.1v-2.8c0-1,1.1-1.7,2.6-1.7h9.3
		c1.4,0,2.6,0.8,2.6,1.7v2.8c0,1-1.2,1.7-2.6,1.7h-9.3C159.4,1699.8,158.2,1699,158.2,1698.1z M158.2,1681.5v-2.8
		c0-1,1.1-1.7,2.6-1.7h9.3c1.4,0,2.6,0.8,2.6,1.7v2.8c0,1-1.2,1.7-2.6,1.7h-9.3C159.4,1683.3,158.2,1682.5,158.2,1681.5z
		 M158.2,1665v-2.8c0-1,1.1-1.7,2.6-1.7h9.3c1.4,0,2.6,0.8,2.6,1.7v2.8c0,1-1.2,1.7-2.6,1.7h-9.3
		C159.4,1666.8,158.2,1666,158.2,1665z M158.2,1648.5v-2.8c0-1,1.1-1.7,2.6-1.7h9.3c1.4,0,2.6,0.8,2.6,1.7v2.8c0,1-1.2,1.7-2.6,1.7
		h-9.3C159.4,1650.3,158.2,1649.5,158.2,1648.5z M158.2,1632v-2.8c0-1,1.1-1.7,2.6-1.7h9.3c1.4,0,2.6,0.8,2.6,1.7v2.8
		c0,1-1.2,1.7-2.6,1.7h-9.3C159.4,1633.7,158.2,1633,158.2,1632z M158.2,1615.5v-2.8c0-1,1.1-1.7,2.6-1.7h9.3c1.4,0,2.6,0.8,2.6,1.7
		v2.8c0,1-1.2,1.7-2.6,1.7h-9.3C159.4,1617.3,158.2,1616.5,158.2,1615.5z"/>
	<text transform="matrix(0 -0.6717 1 0 11.7725 1673.6992)" class="st1 st2 st3">6</text>
	<text transform="matrix(0 -0.6717 1 0 171.3711 1672.6934)" class="st1 st2 st3">6</text>
</g>
<g id="layer1_00000132052587362829174640000005542766414395461533_" transform="translate(0 -928.375)">
	<path id="rect10_00000116207065790216599900000016319146731247676575_" class="st0" d="M0,1873.4h181v-135H0V1873.4z M9.3,1865.5
		v-2.8c0-1,1.2-1.7,2.6-1.7h9.3c1.4,0,2.6,0.8,2.6,1.7v2.8c0,1-1.2,1.7-2.6,1.7h-9.3C10.4,1867.3,9.3,1866.5,9.3,1865.5z M9.3,1849
		v-2.8c0-1,1.2-1.7,2.6-1.7h9.3c1.4,0,2.6,0.8,2.6,1.7v2.8c0,1-1.2,1.7-2.6,1.7h-9.3C10.4,1850.8,9.3,1850,9.3,1849z M9.3,1832.5
		v-2.8c0-1,1.2-1.7,2.6-1.7h9.3c1.4,0,2.6,0.8,2.6,1.7v2.8c0,1-1.2,1.7-2.6,1.7h-9.3C10.4,1834.3,9.3,1833.5,9.3,1832.5z M9.3,1816
		v-2.8c0-1,1.2-1.7,2.6-1.7h9.3c1.4,0,2.6,0.8,2.6,1.7v2.8c0,1-1.2,1.7-2.6,1.7h-9.3C10.4,1817.7,9.3,1817,9.3,1816z M9.3,1799.5
		v-2.8c0-1,1.2-1.7,2.6-1.7h9.3c1.4,0,2.6,0.8,2.6,1.7v2.8c0,1-1.2,1.7-2.6,1.7h-9.3C10.4,1801.3,9.3,1800.5,9.3,1799.5z M9.3,1783
		v-2.8c0-1,1.2-1.7,2.6-1.7h9.3c1.4,0,2.6,0.8,2.6,1.7v2.8c0,1-1.2,1.7-2.6,1.7h-9.3C10.4,1784.7,9.3,1784,9.3,1783z M9.3,1766.5
		v-2.8c0-1,1.2-1.7,2.6-1.7h9.3c1.4,0,2.6,0.8,2.6,1.7v2.8c0,1-1.2,1.7-2.6,1.7h-9.3C10.4,1768.2,9.3,1767.4,9.3,1766.5z M9.3,1750
		v-2.8c0-1,1.2-1.7,2.6-1.7h9.3c1.4,0,2.6,0.8,2.6,1.7v2.8c0,1-1.2,1.7-2.6,1.7h-9.3C10.4,1751.7,9.3,1751,9.3,1750z M28.1,1869.4
		v-125h125v125H28.1z M158.2,1866.1v-2.8c0-1,1.1-1.7,2.6-1.7h9.3c1.4,0,2.6,0.8,2.6,1.7v2.8c0,1-1.2,1.7-2.6,1.7h-9.3
		C159.4,1867.8,158.2,1867.1,158.2,1866.1z M158.2,1849.6v-2.8c0-1,1.1-1.7,2.6-1.7h9.3c1.4,0,2.6,0.8,2.6,1.7v2.8
		c0,1-1.2,1.7-2.6,1.7h-9.3C159.4,1851.3,158.2,1850.5,158.2,1849.6z M158.2,1833.1v-2.8c0-1,1.1-1.7,2.6-1.7h9.3
		c1.4,0,2.6,0.8,2.6,1.7v2.8c0,1-1.2,1.7-2.6,1.7h-9.3C159.4,1834.8,158.2,1834,158.2,1833.1z M158.2,1816.5v-2.8
		c0-1,1.1-1.7,2.6-1.7h9.3c1.4,0,2.6,0.8,2.6,1.7v2.8c0,1-1.2,1.7-2.6,1.7h-9.3C159.4,1818.3,158.2,1817.5,158.2,1816.5z
		 M158.2,1800v-2.8c0-1,1.1-1.7,2.6-1.7h9.3c1.4,0,2.6,0.8,2.6,1.7v2.8c0,1-1.2,1.7-2.6,1.7h-9.3
		C159.4,1801.8,158.2,1801,158.2,1800z M158.2,1783.5v-2.8c0-1,1.1-1.7,2.6-1.7h9.3c1.4,0,2.6,0.8,2.6,1.7v2.8c0,1-1.2,1.7-2.6,1.7
		h-9.3C159.4,1785.3,158.2,1784.5,158.2,1783.5z M158.2,1767v-2.8c0-1,1.1-1.7,2.6-1.7h9.3c1.4,0,2.6,0.8,2.6,1.7v2.8
		c0,1-1.2,1.7-2.6,1.7h-9.3C159.4,1768.7,158.2,1768,158.2,1767z M158.2,1750.5v-2.8c0-1,1.1-1.7,2.6-1.7h9.3c1.4,0,2.6,0.8,2.6,1.7
		v2.8c0,1-1.2,1.7-2.6,1.7h-9.3C159.4,1752.3,158.2,1751.5,158.2,1750.5z"/>
	<text transform="matrix(0 -0.6717 1 0 11.7725 1808.6992)" class="st1 st2 st3">7</text>
	<text transform="matrix(0 -0.6717 1 0 171.3711 1807.6934)" class="st1 st2 st3">7</text>
</g>
<g id="layer1_00000039097399667319816100000005445076867622798246_" transform="translate(0 -928.375)">
	<path id="rect10_00000061472116736500185660000013987492829179161781_" class="st0" d="M0,2008.4h181v-135H0V2008.4z M9.3,2000.5
		v-2.8c0-1,1.2-1.7,2.6-1.7h9.3c1.4,0,2.6,0.8,2.6,1.7v2.8c0,1-1.2,1.7-2.6,1.7h-9.3C10.4,2002.3,9.3,2001.5,9.3,2000.5z M9.3,1984
		v-2.8c0-1,1.2-1.7,2.6-1.7h9.3c1.4,0,2.6,0.8,2.6,1.7v2.8c0,1-1.2,1.7-2.6,1.7h-9.3C10.4,1985.8,9.3,1985,9.3,1984z M9.3,1967.5
		v-2.8c0-1,1.2-1.7,2.6-1.7h9.3c1.4,0,2.6,0.8,2.6,1.7v2.8c0,1-1.2,1.7-2.6,1.7h-9.3C10.4,1969.3,9.3,1968.5,9.3,1967.5z M9.3,1951
		v-2.8c0-1,1.2-1.7,2.6-1.7h9.3c1.4,0,2.6,0.8,2.6,1.7v2.8c0,1-1.2,1.7-2.6,1.7h-9.3C10.4,1952.7,9.3,1952,9.3,1951z M9.3,1934.5
		v-2.8c0-1,1.2-1.7,2.6-1.7h9.3c1.4,0,2.6,0.8,2.6,1.7v2.8c0,1-1.2,1.7-2.6,1.7h-9.3C10.4,1936.3,9.3,1935.5,9.3,1934.5z M9.3,1918
		v-2.8c0-1,1.2-1.7,2.6-1.7h9.3c1.4,0,2.6,0.8,2.6,1.7v2.8c0,1-1.2,1.7-2.6,1.7h-9.3C10.4,1919.7,9.3,1919,9.3,1918z M9.3,1901.5
		v-2.8c0-1,1.2-1.7,2.6-1.7h9.3c1.4,0,2.6,0.8,2.6,1.7v2.8c0,1-1.2,1.7-2.6,1.7h-9.3C10.4,1903.2,9.3,1902.4,9.3,1901.5z M9.3,1885
		v-2.8c0-1,1.2-1.7,2.6-1.7h9.3c1.4,0,2.6,0.8,2.6,1.7v2.8c0,1-1.2,1.7-2.6,1.7h-9.3C10.4,1886.7,9.3,1886,9.3,1885z M28.1,2004.4
		v-125h125v125H28.1z M158.2,2001.1v-2.8c0-1,1.1-1.7,2.6-1.7h9.3c1.4,0,2.6,0.8,2.6,1.7v2.8c0,1-1.2,1.7-2.6,1.7h-9.3
		C159.4,2002.8,158.2,2002.1,158.2,2001.1z M158.2,1984.6v-2.8c0-1,1.1-1.7,2.6-1.7h9.3c1.4,0,2.6,0.8,2.6,1.7v2.8
		c0,1-1.2,1.7-2.6,1.7h-9.3C159.4,1986.3,158.2,1985.5,158.2,1984.6z M158.2,1968.1v-2.8c0-1,1.1-1.7,2.6-1.7h9.3
		c1.4,0,2.6,0.8,2.6,1.7v2.8c0,1-1.2,1.7-2.6,1.7h-9.3C159.4,1969.8,158.2,1969,158.2,1968.1z M158.2,1951.5v-2.8
		c0-1,1.1-1.7,2.6-1.7h9.3c1.4,0,2.6,0.8,2.6,1.7v2.8c0,1-1.2,1.7-2.6,1.7h-9.3C159.4,1953.3,158.2,1952.5,158.2,1951.5z
		 M158.2,1935v-2.8c0-1,1.1-1.7,2.6-1.7h9.3c1.4,0,2.6,0.8,2.6,1.7v2.8c0,1-1.2,1.7-2.6,1.7h-9.3
		C159.4,1936.8,158.2,1936,158.2,1935z M158.2,1918.5v-2.8c0-1,1.1-1.7,2.6-1.7h9.3c1.4,0,2.6,0.8,2.6,1.7v2.8c0,1-1.2,1.7-2.6,1.7
		h-9.3C159.4,1920.3,158.2,1919.5,158.2,1918.5z M158.2,1902v-2.8c0-1,1.1-1.7,2.6-1.7h9.3c1.4,0,2.6,0.8,2.6,1.7v2.8
		c0,1-1.2,1.7-2.6,1.7h-9.3C159.4,1903.7,158.2,1903,158.2,1902z M158.2,1885.5v-2.8c0-1,1.1-1.7,2.6-1.7h9.3c1.4,0,2.6,0.8,2.6,1.7
		v2.8c0,1-1.2,1.7-2.6,1.7h-9.3C159.4,1887.3,158.2,1886.5,158.2,1885.5z"/>
	<text transform="matrix(0 -0.6717 1 0 11.7725 1943.6992)" class="st1 st2 st3">8</text>
	<text transform="matrix(0 -0.6717 1 0 171.3711 1942.6934)" class="st1 st2 st3">8</text>
</g>
<g id="layer1_00000145764943566006639010000014947881376242666113_" transform="translate(0 -928.375)">
	<path id="rect10_00000107562951266497178150000015035076754334354622_" class="st0" d="M0,1062.9h181v-135H0V1062.9z M9.3,1055
		v-2.8c0-1,1.2-1.7,2.6-1.7h9.3c1.4,0,2.6,0.8,2.6,1.7v2.8c0,1-1.2,1.7-2.6,1.7h-9.3C10.4,1056.8,9.3,1056,9.3,1055z M9.3,1038.5
		v-2.8c0-1,1.2-1.7,2.6-1.7h9.3c1.4,0,2.6,0.8,2.6,1.7v2.8c0,1-1.2,1.7-2.6,1.7h-9.3C10.4,1040.3,9.3,1039.5,9.3,1038.5z M9.3,1022
		v-2.8c0-1,1.2-1.7,2.6-1.7h9.3c1.4,0,2.6,0.8,2.6,1.7v2.8c0,1-1.2,1.7-2.6,1.7h-9.3C10.4,1023.8,9.3,1023,9.3,1022z M9.3,1005.5
		v-2.8c0-1,1.2-1.7,2.6-1.7h9.3c1.4,0,2.6,0.8,2.6,1.7v2.8c0,1-1.2,1.7-2.6,1.7h-9.3C10.4,1007.2,9.3,1006.5,9.3,1005.5z M9.3,989
		v-2.8c0-1,1.2-1.7,2.6-1.7h9.3c1.4,0,2.6,0.8,2.6,1.7v2.8c0,1-1.2,1.7-2.6,1.7h-9.3C10.4,990.8,9.3,990,9.3,989z M9.3,972.5v-2.8
		c0-1,1.2-1.7,2.6-1.7h9.3c1.4,0,2.6,0.8,2.6,1.7v2.8c0,1-1.2,1.7-2.6,1.7h-9.3C10.4,974.2,9.3,973.5,9.3,972.5z M9.3,956v-2.8
		c0-1,1.2-1.7,2.6-1.7h9.3c1.4,0,2.6,0.8,2.6,1.7v2.8c0,1-1.2,1.7-2.6,1.7h-9.3C10.4,957.7,9.3,956.9,9.3,956z M9.3,939.5v-2.8
		c0-1,1.2-1.7,2.6-1.7h9.3c1.4,0,2.6,0.8,2.6,1.7v2.8c0,1-1.2,1.7-2.6,1.7h-9.3C10.4,941.2,9.3,940.5,9.3,939.5z M28.1,1058.9v-125
		h125v125H28.1z M158.2,1055.6v-2.8c0-1,1.1-1.7,2.6-1.7h9.3c1.4,0,2.6,0.8,2.6,1.7v2.8c0,1-1.2,1.7-2.6,1.7h-9.3
		C159.4,1057.3,158.2,1056.6,158.2,1055.6z M158.2,1039.1v-2.8c0-1,1.1-1.7,2.6-1.7h9.3c1.4,0,2.6,0.8,2.6,1.7v2.8
		c0,1-1.2,1.7-2.6,1.7h-9.3C159.4,1040.8,158.2,1040,158.2,1039.1z M158.2,1022.6v-2.8c0-1,1.1-1.7,2.6-1.7h9.3
		c1.4,0,2.6,0.8,2.6,1.7v2.8c0,1-1.2,1.7-2.6,1.7h-9.3C159.4,1024.3,158.2,1023.5,158.2,1022.6z M158.2,1006v-2.8
		c0-1,1.1-1.7,2.6-1.7h9.3c1.4,0,2.6,0.8,2.6,1.7v2.8c0,1-1.2,1.7-2.6,1.7h-9.3C159.4,1007.8,158.2,1007,158.2,1006z M158.2,989.5
		v-2.8c0-1,1.1-1.7,2.6-1.7h9.3c1.4,0,2.6,0.8,2.6,1.7v2.8c0,1-1.2,1.7-2.6,1.7h-9.3C159.4,991.3,158.2,990.5,158.2,989.5z
		 M158.2,973v-2.8c0-1,1.1-1.7,2.6-1.7h9.3c1.4,0,2.6,0.8,2.6,1.7v2.8c0,1-1.2,1.7-2.6,1.7h-9.3C159.4,974.8,158.2,974,158.2,973z
		 M158.2,956.5v-2.8c0-1,1.1-1.7,2.6-1.7h9.3c1.4,0,2.6,0.8,2.6,1.7v2.8c0,1-1.2,1.7-2.6,1.7h-9.3
		C159.4,958.2,158.2,957.5,158.2,956.5z M158.2,940v-2.8c0-1,1.1-1.7,2.6-1.7h9.3c1.4,0,2.6,0.8,2.6,1.7v2.8c0,1-1.2,1.7-2.6,1.7
		h-9.3C159.4,941.8,158.2,941,158.2,940z"/>
	<text transform="matrix(0 -0.6717 1 0 11.7725 998.1997)" class="st1 st2 st3">1</text>
	<text transform="matrix(0 -0.6717 1 0 171.3711 997.1929)" class="st1 st2 st3">1</text>
</g>
</svg>
